<?xml version="1.0" encoding="UTF-8" standalone="no"?>
<!-- Created with Inkscape (http://www.inkscape.org/) -->

<svg
   xmlns:dc="http://purl.org/dc/elements/1.1/"
   xmlns:cc="http://creativecommons.org/ns#"
   xmlns:rdf="http://www.w3.org/1999/02/22-rdf-syntax-ns#"
   xmlns:svg="http://www.w3.org/2000/svg"
   xmlns="http://www.w3.org/2000/svg"
   xmlns:sodipodi="http://sodipodi.sourceforge.net/DTD/sodipodi-0.dtd"
   xmlns:inkscape="http://www.inkscape.org/namespaces/inkscape"
   width="406.8197"
   height="88.214264"
   id="svg2"
   version="1.1"
   inkscape:version="0.48.3.1 r9886"
   inkscape:export-filename="/home/daniel/Downloads/logo.png"
   inkscape:export-xdpi="90"
   inkscape:export-ydpi="90"
   sodipodi:docname="logo deitado.svg">
  <defs
     id="defs4">
    <clipPath
       id="g2a75baaa1_00.1">
      <path
         inkscape:connector-curvature="0"
         d="m 0,0 266,0 0,211 -266,0 z"
         clip-rule="nonzero"
         id="path3003" />
    </clipPath>
  </defs>
  <sodipodi:namedview
     id="base"
     pagecolor="#ffffff"
     bordercolor="#666666"
     borderopacity="1.0"
     inkscape:pageopacity="0.0"
     inkscape:pageshadow="2"
     inkscape:zoom="4"
     inkscape:cx="204.81183"
     inkscape:cy="43.654194"
     inkscape:document-units="px"
     inkscape:current-layer="layer1"
     showgrid="false"
     fit-margin-top="5"
     fit-margin-left="5"
     fit-margin-right="5"
     fit-margin-bottom="5"
     inkscape:window-width="1920"
     inkscape:window-height="1056"
     inkscape:window-x="0"
     inkscape:window-y="24"
     inkscape:window-maximized="1"
     showguides="true"
     inkscape:guide-bbox="true">
    <sodipodi:guide
       orientation="0,1"
       position="358.3125,20.625"
       id="guide3815" />
  </sodipodi:namedview>
  <metadata
     id="metadata7">
    <rdf:RDF>
      <cc:Work
         rdf:about="">
        <dc:format>image/svg+xml</dc:format>
        <dc:type
           rdf:resource="http://purl.org/dc/dcmitype/StillImage" />
        <dc:title />
      </cc:Work>
    </rdf:RDF>
  </metadata>
  <g
     inkscape:label="Layer 1"
     inkscape:groupmode="layer"
     id="layer1"
     transform="translate(-70.547408,-288.34718)">
    <text
       sodipodi:linespacing="125%"
       id="text3037"
       y="355.93643"
       x="422.62485"
       style="font-size:62.08490753px;font-style:normal;font-weight:normal;line-height:125%;letter-spacing:0px;word-spacing:0px;fill:#9cc327;fill-opacity:1;stroke:none;font-family:Sans"
       xml:space="preserve"><tspan
         style="font-size:58.40698624px;font-style:normal;font-variant:normal;font-weight:normal;font-stretch:normal;letter-spacing:-3.32597709px;fill:#9cc327;fill-opacity:1;font-family:Verdana;-inkscape-font-specification:Verdana"
         y="355.93643"
         x="422.62485"
         id="tspan3039"
         sodipodi:role="line">R</tspan></text>
    <g
       id="g3847">
      <path
         transform="matrix(1.2758621,0,0,1.2758621,33.398391,274.11123)"
         d="m 43.392858,31.03241 c 0,2.860046 -2.318525,5.178571 -5.178571,5.178571 -2.860046,0 -5.178571,-2.318525 -5.178571,-5.178571 0,-2.860046 2.318525,-5.178572 5.178571,-5.178572 2.860046,0 5.178571,2.318526 5.178571,5.178572 z"
         sodipodi:ry="5.1785712"
         sodipodi:rx="5.1785712"
         sodipodi:cy="31.03241"
         sodipodi:cx="38.214287"
         id="path3089"
         style="fill:#9cc327;fill-opacity:1;fill-rule:evenodd;stroke:none"
         sodipodi:type="arc" />
      <path
         sodipodi:type="arc"
         style="fill:#9cc327;fill-opacity:1;fill-rule:evenodd;stroke:none"
         id="path3859"
         sodipodi:cx="38.214287"
         sodipodi:cy="31.03241"
         sodipodi:rx="5.1785712"
         sodipodi:ry="5.1785712"
         d="m 43.392858,31.03241 c 0,2.860046 -2.318525,5.178571 -5.178571,5.178571 -2.860046,0 -5.178571,-2.318525 -5.178571,-5.178571 0,-2.860046 2.318525,-5.178572 5.178571,-5.178572 2.860046,0 5.178571,2.318526 5.178571,5.178572 z"
         transform="translate(63.761691,290.8862)" />
      <path
         transform="matrix(1.0862069,0,0,1.0862069,70.556641,298.12169)"
         d="m 43.392858,31.03241 c 0,2.860046 -2.318525,5.178571 -5.178571,5.178571 -2.860046,0 -5.178571,-2.318525 -5.178571,-5.178571 0,-2.860046 2.318525,-5.178572 5.178571,-5.178572 2.860046,0 5.178571,2.318526 5.178571,5.178572 z"
         sodipodi:ry="5.1785712"
         sodipodi:rx="5.1785712"
         sodipodi:cy="31.03241"
         sodipodi:cx="38.214287"
         id="path3861"
         style="fill:#9cc327;fill-opacity:1;fill-rule:evenodd;stroke:none"
         sodipodi:type="arc" />
      <path
         inkscape:connector-curvature="0"
         id="path3863"
         d="m 86.083111,313.70432 26.071429,0 0,13.92857"
         style="fill:none;stroke:#9cc327;stroke-width:1.5;stroke-linecap:butt;stroke-linejoin:miter;stroke-miterlimit:4;stroke-opacity:1;stroke-dasharray:none" />
      <path
         inkscape:connector-curvature="0"
         id="path3865"
         d="m 93.047401,314.06146 0,7.5 5.89285,0"
         style="fill:none;stroke:#9cc327;stroke-width:1.5;stroke-linecap:butt;stroke-linejoin:miter;stroke-miterlimit:4;stroke-opacity:1;stroke-dasharray:none" />
      <path
         inkscape:connector-curvature="0"
         id="path3867"
         d="m 120.51168,310.84718 0,47.5 16.96428,0"
         style="fill:none;stroke:#1b5d9d;stroke-width:2;stroke-linecap:butt;stroke-linejoin:miter;stroke-miterlimit:4;stroke-opacity:1;stroke-dasharray:none" />
      <path
         transform="matrix(1.8965518,0,0,1.8965518,73.250601,299.49261)"
         d="m 43.392858,31.03241 c 0,2.860046 -2.318525,5.178571 -5.178571,5.178571 -2.860046,0 -5.178571,-2.318525 -5.178571,-5.178571 0,-2.860046 2.318525,-5.178572 5.178571,-5.178572 2.860046,0 5.178571,2.318526 5.178571,5.178572 z"
         sodipodi:ry="5.1785712"
         sodipodi:rx="5.1785712"
         sodipodi:cy="31.03241"
         sodipodi:cx="38.214287"
         id="path3871"
         style="fill:#1b5d9d;fill-opacity:1;fill-rule:evenodd;stroke:none"
         sodipodi:type="arc" />
      <path
         sodipodi:type="arc"
         style="fill:#1b5d9d;fill-opacity:1;fill-rule:evenodd;stroke:none"
         id="path3873"
         sodipodi:cx="38.214287"
         sodipodi:cy="31.03241"
         sodipodi:rx="5.1785712"
         sodipodi:ry="5.1785712"
         d="m 43.392858,31.03241 c 0,2.860046 -2.318525,5.178571 -5.178571,5.178571 -2.860046,0 -5.178571,-2.318525 -5.178571,-5.178571 0,-2.860046 2.318525,-5.178572 5.178571,-5.178572 2.860046,0 5.178571,2.318526 5.178571,5.178572 z"
         transform="matrix(1.8965518,0,0,1.8965518,48.072031,244.31404)" />
      <path
         sodipodi:type="arc"
         style="fill:#f39200;fill-opacity:1;fill-rule:evenodd;stroke:none"
         id="path3875"
         sodipodi:cx="38.214287"
         sodipodi:cy="31.03241"
         sodipodi:rx="5.1785712"
         sodipodi:ry="5.1785712"
         d="m 43.392858,31.03241 c 0,2.860046 -2.318525,5.178571 -5.178571,5.178571 -2.860046,0 -5.178571,-2.318525 -5.178571,-5.178571 0,-2.860046 2.318525,-5.178572 5.178571,-5.178572 2.860046,0 5.178571,2.318526 5.178571,5.178572 z"
         transform="matrix(1.1034483,0,0,1.1034483,69.451341,316.06879)" />
      <path
         transform="matrix(1.1034483,0,0,1.1034483,86.415631,331.6045)"
         d="m 43.392858,31.03241 c 0,2.860046 -2.318525,5.178571 -5.178571,5.178571 -2.860046,0 -5.178571,-2.318525 -5.178571,-5.178571 0,-2.860046 2.318525,-5.178572 5.178571,-5.178572 2.860046,0 5.178571,2.318526 5.178571,5.178572 z"
         sodipodi:ry="5.1785712"
         sodipodi:rx="5.1785712"
         sodipodi:cy="31.03241"
         sodipodi:cx="38.214287"
         id="path3877"
         style="fill:#f39200;fill-opacity:1;fill-rule:evenodd;stroke:none"
         sodipodi:type="arc" />
      <path
         inkscape:connector-curvature="0"
         id="path3879"
         d="m 111.7974,354.24003 0,11.96429 11.96428,0"
         style="fill:none;stroke:#f39200;stroke-width:1.5;stroke-linecap:butt;stroke-linejoin:miter;stroke-miterlimit:4;stroke-opacity:1;stroke-dasharray:none" />
      <path
         transform="matrix(1.8965518,0,0,1.8965518,21.643461,283.06404)"
         d="m 43.392858,31.03241 c 0,2.860046 -2.318525,5.178571 -5.178571,5.178571 -2.860046,0 -5.178571,-2.318525 -5.178571,-5.178571 0,-2.860046 2.318525,-5.178572 5.178571,-5.178572 2.860046,0 5.178571,2.318526 5.178571,5.178572 z"
         sodipodi:ry="5.1785712"
         sodipodi:rx="5.1785712"
         sodipodi:cy="31.03241"
         sodipodi:cx="38.214287"
         id="path3881"
         style="fill:#1b5d9d;fill-opacity:1;fill-rule:evenodd;stroke:none"
         sodipodi:type="arc" />
      <path
         inkscape:connector-curvature="0"
         id="path3883"
         d="m 102.69025,341.74003 18.03572,0"
         style="fill:none;stroke:#1b5d9d;stroke-width:2;stroke-linecap:butt;stroke-linejoin:miter;stroke-miterlimit:4;stroke-opacity:1;stroke-dasharray:none" />
      <path
         inkscape:connector-curvature="0"
         id="path3885"
         d="m 121.44025,347.99003 4.64286,0"
         style="fill:none;stroke:#1b5d9d;stroke-width:1px;stroke-linecap:butt;stroke-linejoin:miter;stroke-opacity:1" />
      <path
         inkscape:connector-curvature="0"
         id="path3887"
         d="m 131.08311,342.81146 0,-33.03572 16.07143,0"
         style="fill:none;stroke:#1b5d9d;stroke-width:1px;stroke-linecap:butt;stroke-linejoin:miter;stroke-opacity:1" />
      <path
         inkscape:connector-curvature="0"
         id="path3889"
         d="m 131.26168,334.95432 9.46429,0 0,-8.21429"
         style="fill:none;stroke:#1b5d9d;stroke-width:1px;stroke-linecap:butt;stroke-linejoin:miter;stroke-opacity:1" />
      <path
         sodipodi:type="arc"
         style="fill:#1b5d9d;fill-opacity:1;fill-rule:evenodd;stroke:none"
         id="path3891"
         sodipodi:cx="38.214287"
         sodipodi:cy="31.03241"
         sodipodi:rx="5.1785712"
         sodipodi:ry="5.1785712"
         d="m 43.392858,31.03241 c 0,2.860046 -2.318525,5.178571 -5.178571,5.178571 -2.860046,0 -5.178571,-2.318525 -5.178571,-5.178571 0,-2.860046 2.318525,-5.178572 5.178571,-5.178572 2.860046,0 5.178571,2.318526 5.178571,5.178572 z"
         transform="matrix(1.3275862,0,0,1.3275862,80.082491,306.34541)" />
      <path
         transform="matrix(1.1551724,0,0,1.1551724,96.671161,285.98154)"
         d="m 43.392858,31.03241 c 0,2.860046 -2.318525,5.178571 -5.178571,5.178571 -2.860046,0 -5.178571,-2.318525 -5.178571,-5.178571 0,-2.860046 2.318525,-5.178572 5.178571,-5.178572 2.860046,0 5.178571,2.318526 5.178571,5.178572 z"
         sodipodi:ry="5.1785712"
         sodipodi:rx="5.1785712"
         sodipodi:cy="31.03241"
         sodipodi:cx="38.214287"
         id="path3893"
         style="fill:#1b5d9d;fill-opacity:1;fill-rule:evenodd;stroke:none"
         sodipodi:type="arc" />
      <path
         sodipodi:type="arc"
         style="fill:#1b5d9d;fill-opacity:1;fill-rule:evenodd;stroke:none"
         id="path3895"
         sodipodi:cx="38.214287"
         sodipodi:cy="31.03241"
         sodipodi:rx="5.1785712"
         sodipodi:ry="5.1785712"
         d="m 43.392858,31.03241 c 0,2.860046 -2.318525,5.178571 -5.178571,5.178571 -2.860046,0 -5.178571,-2.318525 -5.178571,-5.178571 0,-2.860046 2.318525,-5.178572 5.178571,-5.178572 2.860046,0 5.178571,2.318526 5.178571,5.178572 z"
         transform="matrix(1.1551724,0,0,1.1551724,107.20687,274.01725)" />
    </g>
    <text
       xml:space="preserve"
       style="font-size:56px;font-style:normal;font-weight:normal;line-height:125%;letter-spacing:0px;word-spacing:0px;fill:#000000;fill-opacity:1;stroke:none;font-family:Sans"
       x="157.72633"
       y="355.93643"
       id="text3897"
       sodipodi:linespacing="125%"><tspan
         sodipodi:role="line"
         id="tspan3899"
         x="157.72633"
         y="355.93643"
         style="font-size:56px;font-style:normal;font-variant:normal;font-weight:normal;font-stretch:normal;letter-spacing:-3px;font-family:Verdana;-inkscape-font-specification:Verdana"><tspan
           style="font-size:56px;font-style:normal;font-variant:normal;font-weight:normal;font-stretch:normal;letter-spacing:-3px;fill:#1b5d9d;fill-opacity:1;font-family:Verdana;-inkscape-font-specification:Verdana"
           id="tspan3903">hypermind</tspan><tspan
           id="tspan3907"
           style="font-size:56px;font-style:normal;font-variant:normal;font-weight:normal;font-stretch:normal;letter-spacing:-3px;fill:#9cc327;fill-opacity:1;font-family:Verdana;-inkscape-font-specification:Verdana" /></tspan></text>
  </g>
</svg>
